Format : AVI
Format/Info : Audio Video Interleave
File size : 1.29 GiB
Duration : 1h 34mn
Overall bit rate : 1 968 Kbps
Writing library : VirtualDub build 32842/release

Video
ID : 0
Format : MPEG-4 Visual
Format profile : Advanced Simple@L5
Format settings, BVOP : 2
Format settings, QPel : No
Format settings, GMC : No warppoints
Format settings, Matrix : Default (H.263)
Muxing mode : Packed bitstream
Codec ID : XVID
Codec ID/Hint : XviD
Duration : 1h 34mn
Bit rate : 1 828 Kbps
Width : 642 pixels
Height : 342 pixels
Display aspect ratio : 1.877
Frame rate : 29.970 fps
Color space : YUV
Chroma subsampling : 4:2:0
Bit depth : 8 bits
Scan type : Progressive
Compression mode : Lossy
Bits/(Pixel*Frame) : 0.278
Stream size : 1.20 GiB (93%)
Writing library : XviD 64

Audio
ID : 1
Format : MPEG Audio
Format version : Version 1
Format profile : Layer 3
Mode : Joint stereo
Mode extension : MS Stereo
Codec ID : 55
Codec ID/Hint : MP3
Duration : 1h 34mn
Bit rate mode : Constant
Bit rate : 128 Kbps
Channel(s) : 2 channels
Sampling rate : 44.1 KHz
Compression mode : Lossy
Stream size : 86.1 MiB (7%)
Alignment : Split accross interleaves
Interleave, duration : 33 ms (1.00 video frame)
Interleave, preload duration : 500 ms
Writing library : LAME3.98r
Encoding settings : -m j -V 4 -q 2 -lowpass 17 -b 128




 
http://www.imdb.com/title/tt0472181/








When the evil wizard Gargamel chases the tiny blue Smurfs out of their village, they tumble from their magical world and into ours.

Cast
Cast overview, first billed only:
Hank Azaria Gargamel
Neil Patrick Harris Patrick Winslow
Jayma Mays Grace Winslow




















Source Used


VIDEO: ........... The.Smurfs.2011.CAM.XViD-GANE13 .......Thanks

AUDIO: ........... IMAGiNE .......................Thanks


Rgb colours changed ,deinterlaced ,denoised ,smoothened ,sharpened

Enjoy





Greetz to IMAGiNE,Flawl3ss,DiLLoN,BDK,NOiR,TOXiC,THC,Ez,Rx,Boobyblue,TaRiQ786,BHRG
